<svg width="505" height="183" viewBox="0 0 505 183" fill="none" xmlns="http://www.w3.org/2000/svg">
<path d="M2 110C9.17169 115.273 16.7343 119.322 26 117.778C31.9344 116.789 34.529 111.36 38.5556 107.611C42.1615 104.254 47.2898 101.225 51.7778 99.2222C56.0964 97.2955 61.1497 95.1111 65.9444 95.1111C68.6664 95.1111 76.6109 97 73.8889 97C68.9805 97 52.2998 92.7338 49.4444 98.4444C45.1732 106.987 57.2855 115.665 64.2222 116.556C70.9547 117.42 73.7602 113.33 77.3889 108.556C78.7902 106.712 78.531 103.319 79.2222 106.222C82.6346 120.554 96.4281 108.251 100.222 101C106.815 88.4001 97.1918 112.87 100.667 104.556C102.146 101.017 107.36 93.1219 111.5 92.3333C117.107 91.2654 119.277 100.386 120 103.889C121.341 110.382 120.998 108.037 124.833 103.222C126.936 100.583 137.762 86.4777 142.444 91.3333C146.87 95.923 146.959 107.273 143 112.222C141.809 113.711 137.871 112.791 140.444 115.444C145.888 121.058 157.848 123.014 164.778 120.889C176.165 117.397 180.959 105.64 186.222 96.1667C189.394 90.4582 185.368 104.586 185.222 106.444C184.537 115.156 194.135 112.893 199.5 110.167C208.04 105.826 216.014 98.4103 218.556 89C219.125 86.8906 220.57 82.2612 219.722 80C219.245 78.7268 218.152 82.2655 217.722 83.5555C216.043 88.5944 214.733 94.1819 213.444 99.2778C209.123 116.361 205.422 134.854 199.111 151.333C195.219 161.496 186.565 173.888 177.333 179.778C171.356 183.591 162.387 175.225 164.111 168.778C166.998 157.982 182.257 150.933 191.111 147.278C201.968 142.796 213.088 139.005 223.778 134.111C240.537 126.438 256.604 117.213 273.222 109.222C286.914 102.639 300.671 96.8497 313.389 88.5555C318.088 85.491 315.791 87.2748 312.222 90.1111C310.123 91.7797 281.268 112.818 293.111 115C301.632 116.57 310.974 108.403 312.222 100.222C312.41 98.9943 312.49 92.5248 314.556 94.8333C318.132 98.8302 319.658 106.081 324.667 108.778C332.262 112.868 340.72 99.7681 342.889 94.8889C352.931 72.2932 349.16 44.4555 340 22.2222C337.863 17.0347 335.007 12.2634 332.278 7.38888C331.851 6.62727 328.963 -0.625087 329.444 3.88888C332.44 31.9753 340.042 58.8288 347.667 85.8889C350.828 97.1085 353.504 108.426 353.944 120.111C354.362 131.183 352.951 106.632 353.111 105C354.696 88.7972 359.505 71.4886 365.444 56.3333C366.844 52.7618 368.637 43.3577 374.222 44.6667C381.217 46.3062 388.221 55.9882 392.556 61.2222C397.348 67.0096 405.7 78.5426 395.778 84.1111C389.965 87.3733 349.018 82.9979 351.222 78.2222C352.36 75.7577 357.998 75.9577 360.222 76.1111C372.871 76.9834 388.746 77.7315 399.444 85.4444C411.355 94.0314 421.069 113 437.444 113C445.982 113 454.542 110.625 461.778 106.056C464.295 104.466 467.013 101.569 470 101C479.13 99.261 480.85 86.9434 485.556 81C486.76 79.4781 487.158 77.8892 488.667 76.2222C493.109 71.3119 500.086 65.8288 503 60" stroke="black" stroke-width="3" stroke-linecap="round"/>
</svg>
